<mxfile host="app.diagrams.net" modified="2020-08-12T08:16:16.536Z" agent="5.0 (Macintosh; Intel Mac OS X 10_15_5) AppleWebKit/537.36 (KHTML, like Gecko) Chrome/84.0.4147.105 Safari/537.36" etag="LNVNOUoj8i41nxBQ1CPl" version="13.6.2" type="github">
  <diagram id="UZjzwDcGSJcodTZN571z" name="Page-1">
    <mxGraphModel dx="1186" dy="796" grid="1" gridSize="10" guides="1" tooltips="1" connect="1" arrows="1" fold="1" page="1" pageScale="1" pageWidth="827" pageHeight="1169" math="0" shadow="0">
      <root>
        <mxCell id="0" />
        <mxCell id="1" parent="0" />
        <mxCell id="B2Y01lnTFmYLUXzOuHoz-1" value="" style="rounded=0;whiteSpace=wrap;html=1;" parent="1" vertex="1">
          <mxGeometry x="130" y="120" width="610" height="340" as="geometry" />
        </mxCell>
        <mxCell id="B2Y01lnTFmYLUXzOuHoz-5" value="&lt;font style=&quot;font-size: 18px&quot;&gt;运维平台&amp;nbsp;&amp;nbsp;&lt;/font&gt;" style="rounded=1;whiteSpace=wrap;html=1;fillColor=#d0cee2;strokeColor=#56517e;align=right;" parent="1" vertex="1">
          <mxGeometry x="140" y="290" width="590" height="60" as="geometry" />
        </mxCell>
        <mxCell id="B2Y01lnTFmYLUXzOuHoz-2" value="&lt;font style=&quot;font-size: 18px&quot;&gt;Application&lt;/font&gt;" style="rounded=1;whiteSpace=wrap;html=1;fillColor=#d5e8d4;strokeColor=#82b366;" parent="1" vertex="1">
          <mxGeometry x="140" y="130" width="590" height="60" as="geometry" />
        </mxCell>
        <mxCell id="B2Y01lnTFmYLUXzOuHoz-3" value="微服务应用开发环境" style="rounded=1;whiteSpace=wrap;html=1;fillColor=#ffe6cc;strokeColor=#d79b00;" parent="1" vertex="1">
          <mxGeometry x="180" y="300" width="190" height="40" as="geometry" />
        </mxCell>
        <mxCell id="B2Y01lnTFmYLUXzOuHoz-4" value="Devops持续集成与部署" style="rounded=1;whiteSpace=wrap;html=1;fillColor=#ffe6cc;strokeColor=#d79b00;" parent="1" vertex="1">
          <mxGeometry x="400" y="300" width="200" height="40" as="geometry" />
        </mxCell>
        <mxCell id="B2Y01lnTFmYLUXzOuHoz-6" value="&lt;font style=&quot;font-size: 18px&quot;&gt;Jar包&lt;/font&gt;" style="rounded=1;whiteSpace=wrap;html=1;fillColor=#fff2cc;strokeColor=#d6b656;" parent="1" vertex="1">
          <mxGeometry x="140" y="211" width="260" height="60" as="geometry" />
        </mxCell>
        <mxCell id="B2Y01lnTFmYLUXzOuHoz-7" value="&lt;font style=&quot;font-size: 18px&quot;&gt;Docker镜像&lt;/font&gt;" style="rounded=1;whiteSpace=wrap;html=1;fillColor=#fff2cc;strokeColor=#d6b656;" parent="1" vertex="1">
          <mxGeometry x="440" y="211" width="290" height="60" as="geometry" />
        </mxCell>
        <mxCell id="B2Y01lnTFmYLUXzOuHoz-12" value="&lt;font style=&quot;font-size: 14px&quot;&gt;物理机/虚拟机/云服务器&lt;/font&gt;" style="rounded=1;whiteSpace=wrap;html=1;fillColor=#fad9d5;strokeColor=#ae4132;" parent="1" vertex="1">
          <mxGeometry x="140" y="376" width="200" height="60" as="geometry" />
        </mxCell>
        <mxCell id="B2Y01lnTFmYLUXzOuHoz-13" value="&lt;span style=&quot;font-size: 14px&quot;&gt;自建K8s集群&lt;/span&gt;" style="rounded=1;whiteSpace=wrap;html=1;fillColor=#fad9d5;strokeColor=#ae4132;" parent="1" vertex="1">
          <mxGeometry x="370" y="376" width="140" height="60" as="geometry" />
        </mxCell>
        <mxCell id="B2Y01lnTFmYLUXzOuHoz-14" value="&lt;span style=&quot;font-size: 14px&quot;&gt;公有云弹性K8s集群&lt;/span&gt;" style="rounded=1;whiteSpace=wrap;html=1;fillColor=#fad9d5;strokeColor=#ae4132;" parent="1" vertex="1">
          <mxGeometry x="550" y="376" width="180" height="60" as="geometry" />
        </mxCell>
        <mxCell id="cs-DKLsWJAh-OfDn-AhA-1" value="" style="rounded=0;whiteSpace=wrap;html=1;" vertex="1" parent="1">
          <mxGeometry x="30" y="80" width="760" height="530" as="geometry" />
        </mxCell>
        <mxCell id="cs-DKLsWJAh-OfDn-AhA-2" value="" style="rounded=0;whiteSpace=wrap;html=1;dashed=1;" vertex="1" parent="1">
          <mxGeometry x="159" y="390" width="610" height="80" as="geometry" />
        </mxCell>
        <mxCell id="cs-DKLsWJAh-OfDn-AhA-3" value="" style="rounded=0;whiteSpace=wrap;html=1;dashed=1;" vertex="1" parent="1">
          <mxGeometry x="159" y="297" width="610" height="80" as="geometry" />
        </mxCell>
        <mxCell id="cs-DKLsWJAh-OfDn-AhA-4" value="" style="rounded=0;whiteSpace=wrap;html=1;dashed=1;" vertex="1" parent="1">
          <mxGeometry x="159" y="209" width="610" height="80" as="geometry" />
        </mxCell>
        <mxCell id="cs-DKLsWJAh-OfDn-AhA-5" value="" style="rounded=0;whiteSpace=wrap;html=1;dashed=1;" vertex="1" parent="1">
          <mxGeometry x="159" y="120" width="610" height="80" as="geometry" />
        </mxCell>
        <mxCell id="cs-DKLsWJAh-OfDn-AhA-6" value="&lt;font style=&quot;font-size: 18px&quot;&gt;运维平台&amp;nbsp;&amp;nbsp;&lt;/font&gt;" style="rounded=1;whiteSpace=wrap;html=1;fillColor=#d0cee2;strokeColor=#56517e;align=right;" vertex="1" parent="1">
          <mxGeometry x="169" y="306" width="590" height="60" as="geometry" />
        </mxCell>
        <mxCell id="cs-DKLsWJAh-OfDn-AhA-7" value="&lt;span style=&quot;font-size: 18px&quot;&gt;KingdomWind Lab&lt;/span&gt;" style="rounded=1;whiteSpace=wrap;html=1;fillColor=#d5e8d4;strokeColor=#82b366;" vertex="1" parent="1">
          <mxGeometry x="169" y="130" width="590" height="60" as="geometry" />
        </mxCell>
        <mxCell id="cs-DKLsWJAh-OfDn-AhA-8" value="微服务应用开发环境" style="rounded=1;whiteSpace=wrap;html=1;fillColor=#ffe6cc;strokeColor=#d79b00;" vertex="1" parent="1">
          <mxGeometry x="209" y="316" width="190" height="40" as="geometry" />
        </mxCell>
        <mxCell id="cs-DKLsWJAh-OfDn-AhA-9" value="Devops持续集成与部署" style="rounded=1;whiteSpace=wrap;html=1;fillColor=#ffe6cc;strokeColor=#d79b00;" vertex="1" parent="1">
          <mxGeometry x="429" y="316" width="200" height="40" as="geometry" />
        </mxCell>
        <mxCell id="cs-DKLsWJAh-OfDn-AhA-10" value="&lt;font style=&quot;font-size: 18px&quot;&gt;Jar包&lt;/font&gt;" style="rounded=1;whiteSpace=wrap;html=1;fillColor=#fff2cc;strokeColor=#d6b656;" vertex="1" parent="1">
          <mxGeometry x="169" y="219" width="260" height="60" as="geometry" />
        </mxCell>
        <mxCell id="cs-DKLsWJAh-OfDn-AhA-11" value="&lt;font style=&quot;font-size: 18px&quot;&gt;Docker镜像&lt;/font&gt;" style="rounded=1;whiteSpace=wrap;html=1;fillColor=#fff2cc;strokeColor=#d6b656;" vertex="1" parent="1">
          <mxGeometry x="469" y="219" width="290" height="60" as="geometry" />
        </mxCell>
        <mxCell id="cs-DKLsWJAh-OfDn-AhA-12" value="&lt;font style=&quot;font-size: 14px&quot;&gt;物理机/虚拟机/云服务器&lt;/font&gt;" style="rounded=1;whiteSpace=wrap;html=1;fillColor=#fad9d5;strokeColor=#ae4132;" vertex="1" parent="1">
          <mxGeometry x="169" y="400" width="200" height="60" as="geometry" />
        </mxCell>
        <mxCell id="cs-DKLsWJAh-OfDn-AhA-13" value="&lt;span style=&quot;font-size: 14px&quot;&gt;自建K8s集群&lt;/span&gt;" style="rounded=1;whiteSpace=wrap;html=1;fillColor=#fad9d5;strokeColor=#ae4132;" vertex="1" parent="1">
          <mxGeometry x="399" y="400" width="140" height="60" as="geometry" />
        </mxCell>
        <mxCell id="cs-DKLsWJAh-OfDn-AhA-14" value="&lt;span style=&quot;font-size: 14px&quot;&gt;公有云弹性K8s集群&lt;/span&gt;" style="rounded=1;whiteSpace=wrap;html=1;fillColor=#fad9d5;strokeColor=#ae4132;" vertex="1" parent="1">
          <mxGeometry x="579" y="400" width="180" height="60" as="geometry" />
        </mxCell>
        <mxCell id="cs-DKLsWJAh-OfDn-AhA-15" value="&lt;font style=&quot;font-size: 18px&quot;&gt;Application&lt;/font&gt;" style="text;html=1;align=center;verticalAlign=middle;resizable=0;points=[];autosize=1;" vertex="1" parent="1">
          <mxGeometry x="51" y="150" width="100" height="20" as="geometry" />
        </mxCell>
      </root>
    </mxGraphModel>
  </diagram>
</mxfile>
